C:\Users\antoi\Documents\MyRepositories\predsim_tutorial\Results\Case_0\GRF.mot
version=1
nRows=27
nColumns=19
inDegrees=yes
endheader 
time	r_ground_force_vx	r_ground_force_vy	r_ground_force_vz	r_ground_force_px	r_ground_force_py	r_ground_force_pz	l_ground_force_vx	l_ground_force_vy	l_ground_force_vz	l_ground_force_px	l_ground_force_py	l_ground_force_pz	r_ground_torque_x	r_ground_torque_y	r_ground_torque_z	l_ground_torque_x	l_ground_torque_y	l_ground_torque_z	
          0.00000000	        -13.47707022	        298.45300525	         -6.97324192	          0.19237076	          0.00000000	          0.04336442	         65.73125282	        365.82109188	          3.27611901	         -0.32780330	          0.00000000	         -0.06748080	          0.00000000	         -0.00017603	          0.00000000	          0.00000000	         -3.06837524	          0.00000000	
          0.02248548	        -76.68526533	        568.14675260	        -10.99870607	          0.19411535	          0.00000000	          0.04329810	         43.60138884	        269.74284771	         -7.54677427	         -0.32129726	          0.00000000	         -0.06672987	          0.00000000	         -0.11351883	          0.00000000	          0.00000000	         -1.97710660	          0.00000000	
          0.04497097	        -99.41697619	        705.21116942	        -12.10903740	          0.20221758	          0.00000000	          0.04592399	         27.14624249	        166.45664300	        -20.21121266	         -0.31692870	          0.00000000	         -0.06067196	          0.00000000	         -1.07010352	          0.00000000	          0.00000000	         -0.99550981	          0.00000000	
          0.06745645	       -100.45449626	        745.70756441	        -15.39175163	          0.21198532	          0.00000000	          0.04902912	         -9.05340493	         51.25691168	        -11.60225451	         -0.30804799	          0.00000000	         -0.04039481	          0.00000000	         -1.50394966	          0.00000000	          0.00000000	         -0.13501116	          0.00000000	
          0.08994193	        -81.94717730	        723.51075251	        -13.56277160	          0.22115057	          0.00000000	          0.04991823	          0.00000000	          0.00000000	          0.00000000	          0.00000000	          0.00000000	          0.00000000	          0.00000000	         -2.32776634	          0.00000000	          0.00000000	          0.00000000	          0.00000000	
          0.11242742	        -66.19598352	        678.95691379	        -12.75103088	          0.23229683	          0.00000000	          0.04868155	          0.00000000	          0.00000000	          0.00000000	          0.00000000	          0.00000000	          0.00000000	          0.00000000	         -3.68236883	          0.00000000	          0.00000000	          0.00000000	          0.00000000	
          0.13491290	        -50.08584426	        625.54214600	        -13.12649482	          0.24217515	          0.00000000	          0.04804947	          0.00000000	          0.00000000	          0.00000000	          0.00000000	          0.00000000	          0.00000000	          0.00000000	         -4.71018732	          0.00000000	          0.00000000	          0.00000000	          0.00000000	
          0.15739838	        -35.22777199	        580.04033040	        -14.45068357	          0.25122933	          0.00000000	          0.04791082	          0.00000000	          0.00000000	          0.00000000	          0.00000000	          0.00000000	          0.00000000	          0.00000000	         -5.15475042	          0.00000000	          0.00000000	          0.00000000	          0.00000000	
          0.17988386	        -24.99063100	        551.88394202	        -16.88078171	          0.26149185	          0.00000000	          0.04789965	          0.00000000	          0.00000000	          0.00000000	          0.00000000	          0.00000000	          0.00000000	          0.00000000	         -5.26438288	          0.00000000	          0.00000000	          0.00000000	          0.00000000	
          0.20236935	        -18.86276115	        539.67996226	        -18.70852752	          0.27318501	          0.00000000	          0.04777323	          0.00000000	          0.00000000	          0.00000000	          0.00000000	          0.00000000	          0.00000000	          0.00000000	         -4.81252841	          0.00000000	          0.00000000	          0.00000000	          0.00000000	
          0.22485483	        -15.72925163	        536.28713857	        -19.06407047	          0.28511833	          0.00000000	          0.04780097	          0.00000000	          0.00000000	          0.00000000	          0.00000000	          0.00000000	          0.00000000	          0.00000000	         -3.87478229	          0.00000000	          0.00000000	          0.00000000	          0.00000000	
          0.24734031	        -11.66508780	        531.93108331	        -18.74255005	          0.29643339	          0.00000000	          0.04848198	          0.00000000	          0.00000000	          0.00000000	          0.00000000	          0.00000000	          0.00000000	          0.00000000	         -2.47431086	          0.00000000	          0.00000000	          0.00000000	          0.00000000	
          0.26982580	         -6.82072652	        523.99649570	        -17.81893529	          0.30725863	          0.00000000	          0.04957305	          0.00000000	          0.00000000	          0.00000000	          0.00000000	          0.00000000	          0.00000000	          0.00000000	         -1.02204427	          0.00000000	          0.00000000	          0.00000000	          0.00000000	
          0.29231128	         -1.49456794	        516.81223276	        -16.57912370	          0.31785691	          0.00000000	          0.05084922	          0.00000000	          0.00000000	          0.00000000	          0.00000000	          0.00000000	          0.00000000	          0.00000000	         -0.02292795	          0.00000000	          0.00000000	          0.00000000	          0.00000000	
          0.31479676	          4.27587323	        512.46841044	        -15.56968775	          0.32799551	          0.00000000	          0.05227848	          0.00000000	          0.00000000	          0.00000000	          0.00000000	          0.00000000	          0.00000000	          0.00000000	          0.65380048	          0.00000000	          0.00000000	          0.00000000	          0.00000000	
          0.33728225	         12.61167999	        511.87851890	        -16.69025993	          0.33750074	          0.00000000	          0.05380287	          0.00000000	          0.00000000	          0.00000000	          0.00000000	          0.00000000	          0.00000000	          0.00000000	          1.15047420	          0.00000000	          0.00000000	          0.00000000	          0.00000000	
          0.35976773	         20.55519246	        517.16319719	        -18.64853119	          0.34632767	          0.00000000	          0.05535954	          0.00000000	          0.00000000	          0.00000000	          0.00000000	          0.00000000	          0.00000000	          0.00000000	          1.65532770	          0.00000000	          0.00000000	          0.00000000	          0.00000000	
          0.38225321	         28.02934703	        529.71589563	        -21.43543232	          0.35465464	          0.00000000	          0.05674036	          0.00000000	          0.00000000	          0.00000000	          0.00000000	          0.00000000	          0.00000000	          0.00000000	          2.34244354	          0.00000000	          0.00000000	          0.00000000	          0.00000000	
          0.40473869	         36.98345297	        550.59493451	        -23.26506120	          0.36210463	          0.00000000	          0.05779584	          0.00000000	          0.00000000	          0.00000000	          0.00000000	          0.00000000	          0.00000000	          0.00000000	          3.10497005	          0.00000000	          0.00000000	          0.00000000	          0.00000000	
          0.42722418	         48.34237276	        583.93807922	        -22.80670904	          0.36803228	          0.00000000	          0.05845354	          0.00000000	          0.00000000	          0.00000000	          0.00000000	          0.00000000	          0.00000000	          0.00000000	          3.81155112	          0.00000000	          0.00000000	          0.00000000	          0.00000000	
          0.44970966	         59.68880528	        623.58148795	        -20.65003389	          0.37367221	          0.00000000	          0.05885835	          0.00000000	          0.00000000	          0.00000000	          0.00000000	          0.00000000	          0.00000000	          0.00000000	          4.26215357	          0.00000000	          0.00000000	          0.00000000	          0.00000000	
          0.47219514	         70.91626264	        647.50940281	        -20.33336651	          0.37944957	          0.00000000	          0.05921507	          0.00000000	          0.00000000	          0.00000000	          0.00000000	          0.00000000	          0.00000000	          0.00000000	          4.66556992	          0.00000000	          0.00000000	          0.00000000	          0.00000000	
          0.49468063	         84.10515579	        639.55833681	        -18.70642103	          0.38528538	          0.00000000	          0.05977864	          0.00000000	          0.00000000	          0.00000000	          0.00000000	          0.00000000	          0.00000000	          0.00000000	          5.12812277	          0.00000000	          0.00000000	          0.00000000	          0.00000000	
          0.51716611	         87.97372945	        590.35922798	        -15.35760927	          0.39300240	          0.00000000	          0.06090147	          0.00000000	          0.00000000	          0.00000000	          0.00000000	          0.00000000	          0.00000000	          0.00000000	          5.17163504	          0.00000000	          0.00000000	          0.00000000	          0.00000000	
          0.53965159	         82.47600406	        488.70570485	         -9.53807900	          0.40458868	          0.00000000	          0.06332022	          0.00000000	          0.00000000	          0.00000000	          0.00000000	          0.00000000	          0.00000000	          0.00000000	          4.53675052	          0.00000000	          0.00000000	          0.00000000	          0.00000000	
          0.56213708	         65.73125282	        365.82109188	         -3.27611901	          0.41983902	          0.00000000	          0.06748080	        -13.47707022	        298.45300525	          6.97324192	          0.94001307	          0.00000000	         -0.04336442	          0.00000000	          3.06837524	          0.00000000	          0.00000000	          0.00017603	          0.00000000	
          0.58462256	         43.60138884	        269.74284771	          7.54677427	          0.42634505	          0.00000000	          0.06672987	        -76.68526533	        568.14675260	         10.99870607	          0.94175766	          0.00000000	         -0.04329810	          0.00000000	          1.97710660	          0.00000000	          0.00000000	          0.11351883	          0.00000000	
